<svg width="16" height="16" viewBox="0 0 16 16" fill="none" xmlns="http://www.w3.org/2000/svg">
<path fill-rule="evenodd" clip-rule="evenodd" d="M2.33301 12.6666C2.33301 11.0098 3.67615 9.66663 5.33301 9.66663H10.6663C12.3232 9.66663 13.6663 11.0098 13.6663 12.6666V14C13.6663 14.1841 13.5171 14.3333 13.333 14.3333C13.1489 14.3333 12.9997 14.1841 12.9997 14V12.6666C12.9997 11.378 11.955 10.3333 10.6663 10.3333H5.33301C4.04434 10.3333 2.99967 11.378 2.99967 12.6666V14C2.99967 14.1841 2.85044 14.3333 2.66634 14.3333C2.48225 14.3333 2.33301 14.1841 2.33301 14V12.6666Z" fill="#414141"/>
<path fill-rule="evenodd" clip-rule="evenodd" d="M5 4.66663C5 3.00977 6.34315 1.66663 8 1.66663C9.65685 1.66663 11 3.00977 11 4.66663C11 6.32348 9.65685 7.66663 8 7.66663C6.34315 7.66663 5 6.32348 5 4.66663ZM8 2.33329C6.71134 2.33329 5.66667 3.37796 5.66667 4.66663C5.66667 5.95529 6.71134 6.99996 8 6.99996C9.28866 6.99996 10.3333 5.95529 10.3333 4.66663C10.3333 3.37796 9.28866 2.33329 8 2.33329Z" fill="#414141"/>
</svg>
